<?xml version="1.0" encoding="UTF-8" standalone="no"?>
<svg
   enable-background="new 0 0 24 24"
   height="24px"
   viewBox="0 0 24 24"
   width="24px"
   fill="#FFFFFF"
   version="1.1"
   id="svg10"
   sodipodi:docname="expand_horizontal_white_24dp.svg"
   inkscape:version="1.1.1 (1:1.1+202109281949+c3084ef5ed)"
   xmlns:inkscape="http://www.inkscape.org/namespaces/inkscape"
   xmlns:sodipodi="http://sodipodi.sourceforge.net/DTD/sodipodi-0.dtd"
   xmlns="http://www.w3.org/2000/svg"
   xmlns:svg="http://www.w3.org/2000/svg">
  <defs
     id="defs14" />
  <sodipodi:namedview
     id="namedview12"
     pagecolor="#505050"
     bordercolor="#ffffff"
     borderopacity="1"
     inkscape:pageshadow="0"
     inkscape:pageopacity="0"
     inkscape:pagecheckerboard="1"
     showgrid="false"
     inkscape:zoom="35.625"
     inkscape:cx="11.985965"
     inkscape:cy="12.014035"
     inkscape:window-width="1920"
     inkscape:window-height="1015"
     inkscape:window-x="0"
     inkscape:window-y="0"
     inkscape:window-maximized="1"
     inkscape:current-layer="svg10" />
  <g
     id="g4">
    <path
       d="M0,0h24v24H0V0z"
       fill="none"
       id="path2" />
  </g>
  <g
     id="g8"
     transform="rotate(90,12,12)">
    <path
       d="m 5,20 h 14 c 0.55,0 1,0.45 1,1 v 0 c 0,0.55 -0.45,1 -1,1 H 5 C 4.45,22 4,21.55 4,21 v 0 C 4,20.45 4.45,20 5,20 Z M 5,2 h 14 c 0.55,0 1,0.45 1,1 v 0 c 0,0.55 -0.45,1 -1,1 H 5 C 4.45,4 4,3.55 4,3 V 3 C 4,2.45 4.45,2 5,2 Z m 8,7 h 1.79 c 0.45,0 0.67,-0.54 0.35,-0.85 L 12.35,5.36 c -0.2,-0.2 -0.51,-0.2 -0.71,0 L 8.85,8.15 C 8.54,8.46 8.76,9 9.21,9 H 11 v 6 H 9.21 c -0.45,0 -0.67,0.54 -0.35,0.85 l 2.79,2.79 c 0.2,0.2 0.51,0.2 0.71,0 l 2.79,-2.79 C 15.46,15.54 15.24,15 14.8,15 H 13 Z"
       id="path6" />
  </g>
</svg>
