<?xml version="1.0" encoding="UTF-8" standalone="no"?>
<svg
   height="24px"
   viewBox="0 0 24 24"
   width="24px"
   fill="#FFFFFF"
   version="1.1"
   id="svg6"
   sodipodi:docname="rotate_left_white_24dp.svg"
   inkscape:version="1.1.1 (1:1.1+202109281949+c3084ef5ed)"
   xmlns:inkscape="http://www.inkscape.org/namespaces/inkscape"
   xmlns:sodipodi="http://sodipodi.sourceforge.net/DTD/sodipodi-0.dtd"
   xmlns="http://www.w3.org/2000/svg"
   xmlns:svg="http://www.w3.org/2000/svg">
  <defs
     id="defs10" />
  <sodipodi:namedview
     id="namedview8"
     pagecolor="#505050"
     bordercolor="#ffffff"
     borderopacity="1"
     inkscape:pageshadow="0"
     inkscape:pageopacity="0"
     inkscape:pagecheckerboard="1"
     showgrid="false"
     inkscape:zoom="35.625"
     inkscape:cx="11.985965"
     inkscape:cy="12.014035"
     inkscape:window-width="1920"
     inkscape:window-height="1015"
     inkscape:window-x="0"
     inkscape:window-y="0"
     inkscape:window-maximized="1"
     inkscape:current-layer="svg6" />
  <path
     d="M0 0h24v24H0V0z"
     fill="none"
     id="path2" />
  <path
     d="M 8.8807764,4.83 11.010776,2.7 c 0.62,-0.62 1.7,-0.18 1.7,0.71 v 0.66 c 3.94,0.49 7,3.85 7,7.93 0,3.64 -2.43,6.71 -5.77,7.68 -0.62,0.18 -1.23,-0.32 -1.23,-0.96 v -0.03 c 0,-0.43 0.27,-0.82 0.68,-0.94 2.5,-0.72 4.32,-3.02 4.32,-5.75 0,-2.97 -2.16,-5.43 -5,-5.91 v 1.53 c 0,0.89 -1.07,1.33 -1.7,0.71 L 8.8807764,6.25 c -0.4,-0.38 -0.4,-1.02 0,-1.42 z m -4.84,4.93 c 0.16,-0.55 0.38,-1.08 0.66,-1.59 0.31,-0.57 1.1,-0.66 1.56,-0.2 l 0.01,0.01 c 0.31,0.31 0.38,0.78 0.17,1.16 -0.2,0.37 -0.36,0.76 -0.48,1.16 -0.12,0.42 -0.51,0.7 -0.94,0.7 h -0.02 c -0.65,0 -1.15,-0.62 -0.96,-1.24 z m 6.6699996,8.92 v 0.02 c 0,0.65 -0.62,1.14 -1.2399996,0.96 -0.55,-0.16 -1.08,-0.38 -1.59,-0.66 -0.57,-0.31 -0.66,-1.1 -0.2,-1.56 l 0.02,-0.02 c 0.31,-0.31 0.78,-0.38 1.16,-0.17 0.37,0.21 0.76,0.37 1.1599996,0.49 0.41,0.12 0.69,0.51 0.69,0.94 z M 6.2707764,16.03 c -0.46,0.46 -1.25,0.37 -1.56,-0.2 -0.28,-0.51 -0.5,-1.04 -0.67,-1.59 -0.18,-0.62 0.31,-1.24 0.96,-1.24 h 0.02 c 0.44,0 0.82,0.28 0.94,0.7 0.12,0.4 0.28,0.79 0.48,1.17 0.21,0.38 0.13,0.86 -0.17,1.16 z"
     id="path4" />
</svg>
