<?xml version="1.0" encoding="UTF-8" standalone="no"?>
<svg
   enable-background="new 0 0 24 24"
   height="24px"
   viewBox="0 0 24 24"
   width="24px"
   fill="#FFFFFF"
   version="1.1"
   id="svg6"
   sodipodi:docname="view_vertical_white_24dp.svg"
   inkscape:version="1.1.1 (1:1.1+202109281949+c3084ef5ed)"
   xmlns:inkscape="http://www.inkscape.org/namespaces/inkscape"
   xmlns:sodipodi="http://sodipodi.sourceforge.net/DTD/sodipodi-0.dtd"
   xmlns="http://www.w3.org/2000/svg"
   xmlns:svg="http://www.w3.org/2000/svg">
  <defs
     id="defs10" />
  <sodipodi:namedview
     id="namedview8"
     pagecolor="#505050"
     bordercolor="#ffffff"
     borderopacity="1"
     inkscape:pageshadow="0"
     inkscape:pageopacity="0"
     inkscape:pagecheckerboard="1"
     showgrid="false"
     inkscape:zoom="17.8125"
     inkscape:cx="8.3087719"
     inkscape:cy="14.091228"
     inkscape:window-width="1920"
     inkscape:window-height="1015"
     inkscape:window-x="0"
     inkscape:window-y="0"
     inkscape:window-maximized="1"
     inkscape:current-layer="svg6" />
  <rect
     fill="none"
     height="24"
     width="24"
     id="rect2" />
  <path
     d="m 16.781162,20 v -1 c 0,-0.55 -0.449999,-1 -0.999999,-1 H 8.2188375 c -0.55,0 -1,0.45 -1,1 v 1 c 0,0.55 0.45,1 1,1 h 7.5623255 c 0.55,0 0.999999,-0.45 0.999999,-1 z m 0,-4 V 8 c 0,-0.55 -0.449999,-1 -0.999999,-1 H 8.2188375 c -0.55,0 -1,0.45 -1,1 v 8 c 0,0.55 0.45,1 1,1 h 7.5623255 c 0.55,0 0.999999,-0.45 0.999999,-1 z m 0,-11 V 4 c 0,-0.55 -0.449999,-1 -0.999999,-1 H 8.2188375 c -0.55,0 -1,0.45 -1,1 v 1 c 0,0.55 0.45,1 1,1 h 7.5623255 c 0.55,0 0.999999,-0.45 0.999999,-1 z"
     id="path4"
     sodipodi:nodetypes="sssssssssssssssssssssssssss" />
</svg>
